<svg width="32" height="33" viewBox="0 0 32 33" fill="none" xmlns="http://www.w3.org/2000/svg">
<g id="ep:arrow-up-bold">
<path id="Vector" d="M21.4112 3.7721C21.7861 4.14715 21.9967 4.65577 21.9967 5.1861C21.9967 5.71642 21.7861 6.22504 21.4112 6.6001L11.5112 16.5001L21.4112 26.4001C21.7755 26.7773 21.9771 27.2825 21.9725 27.8069C21.968 28.3313 21.7576 28.8329 21.3868 29.2037C21.016 29.5746 20.5144 29.7849 19.99 29.7894C19.4656 29.794 18.9604 29.5924 18.5832 29.2281L7.26917 17.9141C6.89422 17.539 6.68359 17.0304 6.68359 16.5001C6.68359 15.9698 6.89422 15.4612 7.26917 15.0861L18.5832 3.7721C18.9582 3.39715 19.4668 3.18652 19.9972 3.18652C20.5275 3.18652 21.0361 3.39715 21.4112 3.7721Z" fill="#4582E9"/>
</g>
</svg>
