<svg width="32" height="33" viewBox="0 0 32 33" fill="none" xmlns="http://www.w3.org/2000/svg">
<g id="ep:arrow-up-bold">
<path id="Vector" d="M10.5888 3.7721C10.2139 4.14715 10.0033 4.65577 10.0033 5.1861C10.0033 5.71642 10.2139 6.22504 10.5888 6.6001L20.4888 16.5001L10.5888 26.4001C10.2245 26.7773 10.0229 27.2825 10.0275 27.8069C10.032 28.3313 10.2424 28.8329 10.6132 29.2037C10.984 29.5746 11.4856 29.7849 12.01 29.7894C12.5344 29.794 13.0396 29.5924 13.4168 29.2281L24.7308 17.9141C25.1058 17.539 25.3164 17.0304 25.3164 16.5001C25.3164 15.9698 25.1058 15.4612 24.7308 15.0861L13.4168 3.7721C13.0418 3.39715 12.5332 3.18652 12.0028 3.18652C11.4725 3.18652 10.9639 3.39715 10.5888 3.7721Z" fill="#4582E9"/>
</g>
</svg>
