<svg width="32" height="32" viewBox="0 0 32 32" fill="none" xmlns="http://www.w3.org/2000/svg">
<path d="M10.5888 3.27197C10.2139 3.64703 10.0033 4.15565 10.0033 4.68597C10.0033 5.2163 10.2139 5.72492 10.5888 6.09997L20.4888 16L10.5888 25.9C10.2245 26.2772 10.0229 26.7824 10.0275 27.3068C10.032 27.8312 10.2424 28.3328 10.6132 28.7036C10.984 29.0744 11.4856 29.2848 12.01 29.2893C12.5344 29.2939 13.0396 29.0923 13.4168 28.728L24.7308 17.414C25.1058 17.0389 25.3164 16.5303 25.3164 16C25.3164 15.4696 25.1058 14.961 24.7308 14.586L13.4168 3.27197C13.0418 2.89703 12.5332 2.6864 12.0028 2.6864C11.4725 2.6864 10.9639 2.89703 10.5888 3.27197Z" fill="#FAFAFA"/>
</svg>
