<svg width="19" height="19" viewBox="0 0 19 19" fill="none" xmlns="http://www.w3.org/2000/svg">
<g id="bxs:up-arrow">
<path id="Vector" d="M3.95477 16.6254L3.95477 2.37536C3.95522 2.23109 3.99501 2.08967 4.06986 1.96632C4.14471 1.84298 4.25178 1.74239 4.37954 1.67537C4.50731 1.60835 4.65093 1.57745 4.79495 1.58599C4.93897 1.59452 5.07794 1.64218 5.1969 1.72382L15.4886 8.84882C15.9153 9.14411 15.9153 9.85503 15.4886 10.1511L5.1969 17.2761C5.07819 17.3586 4.93915 17.4069 4.79489 17.4159C4.65063 17.4249 4.50666 17.3942 4.37862 17.3272C4.25059 17.2601 4.14338 17.1592 4.06866 17.0355C3.99393 16.9117 3.95454 16.7699 3.95477 16.6254Z" fill="#A8ABAC"/>
</g>
</svg>
