<svg width="14" height="66" viewBox="0 0 14 66" fill="none" xmlns="http://www.w3.org/2000/svg">
<path d="M6.90327 66C2.84611 66 0 63.1093 0 58.8752C0 54.6411 2.84346 51.7687 6.90327 51.7687C10.9631 51.7687 14 54.8345 14 58.8752C14 62.9159 10.9816 66 6.90327 66ZM6.79727 0C9.81828 0 13.3878 0.632504 13.4965 3.77412C13.4965 4.86662 13.3693 6.41652 13.1573 7.97949C12.3517 15.8466 10.0409 34.3826 9.01268 47.0562H4.67196C3.61461 34.5734 1.4787 16.432 0.54855 8.12324C0.402799 6.77198 0.151048 4.78037 0.151048 3.68787C0.151048 0.776255 3.65436 0 6.79992 0H6.79727Z" fill="#4582E9"/>
</svg>
