<svg width="40" height="40" viewBox="0 0 40 40" fill="none" xmlns="http://www.w3.org/2000/svg">
<path d="M33.9962 19.4981C33.9962 21.9355 33.3945 24.235 32.3291 26.2508C30.1599 30.3745 26.0592 33.3217 21.2342 33.8965C20.6631 33.9655 20.0844 34 19.4981 34C18.8466 34 18.2066 33.9578 17.578 33.8735C12.8335 33.245 8.80944 30.3209 6.66711 26.2508C5.60169 24.235 5 21.9355 5 19.4981C5 16.7042 5.79331 14.0944 7.16149 11.883C9.3958 8.26906 13.1746 5.709 17.578 5.12647C18.2066 5.04216 18.8466 5 19.4981 5C20.0844 5 20.6631 5.03449 21.2342 5.10348C25.7143 5.63618 29.5697 8.21541 31.8347 11.883C33.2029 14.0944 33.9962 16.7042 33.9962 19.4981Z" stroke="#1A191D" stroke-width="2" stroke-linecap="round" stroke-linejoin="round"/>
<path d="M31.8333 11.883C29.9095 12.09 27.9243 12.251 25.8892 12.3544C23.8082 12.4694 21.6697 12.5269 19.4968 12.5269C17.3238 12.5269 15.078 12.4656 12.9471 12.3468C10.9658 12.2433 9.03421 12.0862 7.16016 11.883C9.39446 8.26906 13.1732 5.709 17.5767 5.12647C18.2052 5.04216 18.8452 5 19.4968 5C20.0831 5 20.6618 5.03449 21.2328 5.10348C25.713 5.63618 29.5684 8.21541 31.8333 11.883Z" stroke="#1A191D" stroke-width="2" stroke-linecap="round" stroke-linejoin="round"/>
<path d="M32.3319 26.2509C30.1627 30.3746 26.062 33.3217 21.237 33.8966C20.666 33.9656 20.0873 34.0001 19.5009 34.0001C18.8494 34.0001 18.2094 33.9579 17.5809 33.8736C12.8363 33.2451 8.81225 30.3209 6.66992 26.2509C8.6053 26.0325 10.6058 25.8638 12.6562 25.7489C14.8828 25.6186 17.1708 25.5534 19.5009 25.5534C21.831 25.5534 24.0117 25.6186 26.1885 25.7412C28.2963 25.8562 30.3467 26.0286 32.3319 26.2509Z" stroke="#1A191D" stroke-width="2" stroke-linecap="round" stroke-linejoin="round"/>
<path d="M33.9973 19.4981C33.9973 21.9355 33.3956 24.235 32.3301 26.2508C30.161 30.3745 26.0603 33.3217 21.2353 33.8965C20.6642 33.9655 20.0855 34 19.4992 34C18.8477 34 18.2076 33.9578 17.5791 33.8735C15.364 31.827 13.6356 29.014 12.6545 25.7488C12.0681 23.8019 11.75 21.6979 11.75 19.4981C11.75 16.9572 12.1754 14.5389 12.9496 12.3468C13.9613 9.46861 15.5709 6.98137 17.5791 5.12647C18.2076 5.04216 18.8477 5 19.4992 5C20.0855 5 20.6642 5.03449 21.2353 5.10348C25.7154 5.63618 29.5708 8.21541 31.8358 11.883C33.2039 14.0944 33.9973 16.7042 33.9973 19.4981Z" stroke="#1A191D" stroke-width="2" stroke-linecap="round" stroke-linejoin="round"/>
<path d="M27.0901 19.4981C27.0901 21.6941 26.772 23.7981 26.1857 25.7411C25.2046 29.0217 23.4646 31.8462 21.2342 33.8965C20.6631 33.9655 20.0844 34 19.4981 34C18.8466 34 18.2066 33.9578 17.578 33.8735C12.8335 33.245 8.80944 30.3209 6.66711 26.2508C5.60169 24.235 5 21.9355 5 19.4981C5 16.7042 5.79331 14.0944 7.16149 11.883C9.3958 8.26906 13.1746 5.709 17.578 5.12647C18.2066 5.04216 18.8466 5 19.4981 5C20.0844 5 20.6631 5.03449 21.2342 5.10348C23.2577 6.9622 24.875 9.46095 25.8906 12.3544C26.6647 14.5428 27.0901 16.9572 27.0901 19.4981Z" stroke="#1A191D" stroke-width="2" stroke-linecap="round" stroke-linejoin="round"/>
<path d="M5 19.4979H33.9962" stroke="#1A191D" stroke-width="2" stroke-linecap="round" stroke-linejoin="round"/>
</svg>
