<svg width="66" height="66" viewBox="0 0 66 66" fill="none" xmlns="http://www.w3.org/2000/svg">
<path d="M58.7837 28.6731L38.2663 7.71994C35.3701 4.76002 30.6446 4.76002 27.7484 7.71994L7.23097 28.6731C5.53897 30.4023 5.03594 32.9727 5.95054 35.216C6.86513 37.4749 8.99919 38.9237 11.3771 38.9237H12.2308V51.4177C12.2308 56.434 16.2245 60.5 21.1176 60.5H44.8819C49.7902 60.5 53.7839 56.434 53.7839 51.4177V38.9237H54.6223C57.0155 38.9237 59.1496 37.4749 60.0489 35.216C60.9635 32.9727 60.4605 30.4023 58.7837 28.6731ZM37.0011 52.7575C37.0011 53.8635 36.117 54.7671 35.0195 54.7671H30.98C29.8977 54.7671 29.0136 53.8635 29.0136 52.7575V41.7435C29.0136 40.6374 29.8977 39.7338 30.98 39.7338H35.0195C36.117 39.7338 37.0011 40.6374 37.0011 41.7435V52.7575Z" fill="#4582E9"/>
</svg>
