<svg width="224" height="64" viewBox="0 0 224 64" fill="none" xmlns="http://www.w3.org/2000/svg">
<g clip-path="url(#clip0_2480_2407)">
<path d="M30.658 64C24.3385 64 18.8685 62.8702 14.2608 60.5978C9.65313 58.3254 6.12658 55.1928 3.6683 51.1871C1.21001 47.1815 -0.0126953 42.4955 -0.0126953 37.129C-0.0126953 31.7625 0.913988 26.9865 2.78023 22.4545C4.64646 17.9225 7.27207 13.9811 10.6699 10.6559C14.0677 7.33077 18.1091 4.72455 22.8069 2.83729C27.5047 0.950029 32.743 0.0128174 38.5348 0.0128174C44.3265 0.0128174 48.9857 0.962867 53.2459 2.83729C57.506 4.72455 60.6851 7.4078 62.8216 10.887L52.4479 19.3733C50.9163 17.0752 48.9085 15.2907 46.4244 14.0196C43.9404 12.7486 40.9931 12.1195 37.5566 12.1195C34.1202 12.1195 30.9154 12.7358 28.071 13.9811C25.2394 15.2136 22.794 16.9468 20.7605 19.155C18.7269 21.3633 17.1696 23.931 16.1142 26.8453C15.0459 29.7597 14.5182 32.9051 14.5182 36.2559C14.5182 39.3757 15.1875 42.1103 16.5132 44.4341C17.8388 46.7579 19.8209 48.5938 22.4465 49.9161C25.0721 51.2385 28.2254 51.9061 31.8807 51.9061C35.0726 51.9061 38.0586 51.3155 40.8257 50.1344C43.6058 48.9532 46.1156 47.1302 48.355 44.6523L56.7724 53.3183C53.5805 57.0929 49.7708 59.8146 45.3433 61.4965C40.9158 63.1783 36.0121 64.0128 30.6322 64.0128L30.658 64Z" fill="#1A191D"/>
<path d="M63.0146 62.9473L75.4219 1.06561L89.7726 1.06561L77.3654 62.9473H63.0146Z" fill="#1A191D"/>
<path d="M99.1427 62.9473H84.792L97.1993 1.06561L143.997 1.06561L141.783 12.5561L109.349 12.5561L99.1556 62.9473H99.1427ZM104.909 28.9124L134.691 28.9124L132.387 40.4028L102.605 40.4028L104.909 28.9124Z" fill="#1A191D"/>
<path d="M159.519 62.9473L147.111 1.06561L161.462 1.06561L173.869 62.9473L159.519 62.9473Z" fill="#4582E9"/>
<path d="M177.383 62.9473L187.396 12.7358L167.64 12.7358L169.943 1.06561L224 1.06561L221.606 12.7358L201.85 12.7358L191.836 62.9473L177.396 62.9473H177.383Z" fill="#1A191D"/>
</g>
<defs>
<clipPath id="clip0_2480_2407">
<rect width="224" height="64" fill="white"/>
</clipPath>
</defs>
</svg>
