<svg width="34" height="34" viewBox="0 0 34 34" fill="none" xmlns="http://www.w3.org/2000/svg">
<path d="M33.0019 20.8278H30.038C28.7416 20.8278 28.0916 22.3955 29.0092 23.3131L31.1629 25.4668L25.6081 31.0216L23.5148 28.9282C22.5971 28.0105 21.0294 28.6606 21.0294 29.957V33H13.1722V30.0399C13.1722 28.7435 11.6045 28.0934 10.6869 29.0111L8.53506 31.1629L2.98033 25.6081L5.07372 23.5148C5.99134 22.5971 5.34128 21.0294 4.04493 21.0294H1V13.1722H3.96202C5.25838 13.1722 5.90844 11.6045 4.99081 10.6869L2.83902 8.53506L8.39375 2.98033L10.4871 5.07372C11.4048 5.99134 12.9724 5.34128 12.9724 4.04493V1H20.8297V3.96014C20.8297 5.25649 22.3974 5.90655 23.315 4.98893L25.4668 2.83713L31.0216 8.39375L28.9282 10.4871C28.0105 11.4048 28.6606 12.9724 29.957 12.9724H33.0019V20.8278Z" stroke="#4D5055" stroke-width="2" stroke-linecap="round" stroke-linejoin="round"/>
<path d="M16.7072 23.9425C20.5409 23.9425 23.6487 20.8347 23.6487 17.001C23.6487 13.1673 20.5409 10.0594 16.7072 10.0594C12.8735 10.0594 9.76562 13.1673 9.76562 17.001C9.76562 20.8347 12.8735 23.9425 16.7072 23.9425Z" stroke="#4D5055" stroke-width="2" stroke-linecap="round" stroke-linejoin="round"/>
</svg>
